<svg xmlns="http://www.w3.org/2000/svg" width="1024" height="1024" viewBox="0 0 1024 1024" version="1.1">
	<path d="M 597.105 254.518 C 584.540 258.047, 574.288 266.518, 569.432 277.384 L 566.500 283.946 498.946 283.973 L 431.392 284 426.803 286.910 C 421.540 290.248, 419.446 294.831, 420.294 301.155 C 420.952 306.061, 423.188 309.534, 427.304 312.044 C 430.389 313.925, 432.863 313.993, 498.591 313.996 L 566.682 314 569.384 318.963 C 574.435 328.245, 581.521 335.639, 588.792 339.216 C 595.214 342.375, 595.923 342.500, 607.484 342.500 C 618.486 342.500, 619.993 342.269, 625.336 339.766 C 633.038 336.158, 638.265 331.909, 643.167 325.274 C 649.025 317.344, 651.130 311.857, 651.743 302.920 C 653.161 282.236, 643.919 265.612, 626.370 257.278 C 620.229 254.362, 617.627 253.714, 610.751 253.391 C 605.317 253.135, 600.658 253.520, 597.105 254.518 M 599.591 273.512 C 589.746 277.273, 584.008 285.108, 583.250 295.825 C 582.623 304.678, 584.143 309.745, 589.123 315.402 C 596.450 323.726, 605.270 326.517, 615.162 323.641 C 621.692 321.743, 628.291 315.790, 631.375 309.017 C 635.564 299.817, 633.580 287.680, 626.657 280.155 C 620.332 273.279, 608.075 270.270, 599.591 273.512 M 346.100 343.088 C 329.075 347.455, 317.449 359.336, 313.402 376.502 C 309.308 393.869, 317.429 413.902, 332.461 423.518 C 345.830 432.070, 362.215 433.033, 375.866 426.068 C 382.772 422.545, 390.550 414.493, 394.546 406.730 L 398.268 399.500 547.977 399.756 L 697.685 400.013 701.093 397.737 C 708.929 392.501, 710.228 381.762, 703.803 375.336 C 701.782 373.315, 698.694 371.484, 696.415 370.956 C 694.166 370.434, 629.655 370.038, 544.770 370.024 L 397.041 370 394.900 365.750 C 385.795 347.676, 365.306 338.161, 346.100 343.088 M 345.444 362.374 C 329.977 369.576, 325.509 390.702, 336.807 403.208 C 347.073 414.571, 362.753 415.130, 373.664 404.521 C 377.742 400.555, 379.182 398.271, 380.513 393.653 C 383.434 383.520, 380.390 373.154, 372.439 366.156 C 364.961 359.572, 354.582 358.119, 345.444 362.374 M 736 425.098 C 723.782 427.484, 710.928 437.610, 705.107 449.435 L 701.883 455.982 484.118 456.241 L 266.353 456.500 262.772 458.954 C 257.919 462.280, 255.999 465.882, 256.004 471.654 C 256.008 477.178, 258.430 481.925, 262.658 484.696 C 265.288 486.419, 275.266 486.512, 484.456 486.767 L 703.500 487.033 705.644 490.767 C 709.031 496.666, 715.987 504.017, 721.551 507.576 C 729.387 512.589, 736.733 514.350, 747.293 513.748 C 755.064 513.304, 757.144 512.759, 763.645 509.459 C 772.635 504.896, 779.481 497.830, 784.200 488.245 C 787.401 481.744, 787.500 481.165, 787.500 469.021 C 787.500 456.879, 787.400 456.295, 784.192 449.735 C 775.258 431.467, 755.392 421.311, 736 425.098 M 736.969 443.487 C 731.256 445.310, 724.568 450.981, 721.792 456.357 C 718.890 461.979, 718.661 474.789, 721.365 480.243 C 726.297 490.190, 736.136 495.664, 747.451 494.756 C 754.983 494.151, 760.336 491.059, 765.455 484.355 C 769.199 479.451, 769.517 478.580, 770.418 470.740 C 771.504 461.282, 764.689 449.426, 755.686 445.110 C 749.943 442.356, 742.529 441.714, 736.969 443.487 M 263.024 513.603 C 251.420 516.722, 242.261 524.646, 236.281 536.745 C 232.538 544.317, 232.500 544.513, 232.500 556.464 C 232.500 568.116, 232.615 568.770, 235.824 575.290 C 244.897 593.730, 261.101 602.853, 280.024 600.177 C 294.308 598.157, 306.751 589.452, 313.554 576.719 L 316.608 571.004 536.731 570.752 L 756.853 570.500 759.677 568.408 C 764.752 564.648, 767.239 560.004, 766.543 555.591 C 765.745 550.540, 763.429 546.684, 759.960 544.636 C 757.420 543.135, 739.058 543, 537.233 543 L 317.275 543 314.060 536.470 C 304.900 517.864, 283.256 508.166, 263.024 513.603 M 267 531.537 C 256.889 534.676, 250.028 544.306, 250.010 555.384 C 249.996 563.434, 251.666 568.339, 256.156 573.439 C 265.262 583.785, 280.624 585.078, 290.972 576.370 C 306.471 563.329, 301.569 537.140, 282.568 531.471 C 276.582 529.685, 272.913 529.701, 267 531.537 M 702.806 597.405 C 699.124 598.704, 694.525 600.749, 692.585 601.947 C 687.718 604.955, 681.271 612.473, 678.174 618.750 L 675.583 624 499.868 624 L 324.153 624 321.143 626.533 C 315.555 631.235, 314.504 640.686, 318.886 646.839 C 323.572 653.421, 311.031 653, 502.312 653 L 675.583 653 678.313 658.566 C 686.881 676.036, 706.975 685.832, 725.452 681.547 C 744.697 677.084, 757.516 663.092, 759.950 643.893 C 764.002 611.932, 733.031 586.737, 702.806 597.405 M 710.703 613.397 C 697.065 618.424, 689.582 630.249, 691.993 642.961 C 693.192 649.288, 694.962 652.730, 699.178 656.937 C 705.888 663.632, 714.872 666.044, 723.666 663.509 C 728.312 662.170, 730.559 660.740, 734.701 656.485 C 742.602 648.370, 744.583 639.595, 740.792 629.500 C 736.485 618.027, 720.846 609.658, 710.703 613.397 M 578.887 683.451 C 567.548 686.577, 558.378 693.346, 552.435 702.974 C 548.925 708.661, 548.750 708.789, 545.672 707.906 C 540.839 706.520, 389.396 706.728, 386.684 708.125 C 375.571 713.849, 373.763 728.141, 383.238 735.368 L 386.689 738 466.733 738 L 546.778 738 550.338 745.497 C 557.417 760.403, 570.897 769.572, 587.297 770.636 C 594.007 771.071, 596.577 770.788, 601.419 769.080 C 613.263 764.901, 623.976 755.662, 628.542 745.689 C 633.755 734.302, 633.691 718.564, 628.385 707.348 C 625.256 700.735, 617.211 691.794, 611.240 688.295 C 601.700 682.704, 588.670 680.753, 578.887 683.451 M 582.994 700.886 C 575.039 703.459, 568.435 709.675, 565.505 717.349 C 562.924 724.107, 563.835 733.581, 567.661 739.769 C 576.173 753.538, 592.598 756.709, 604.926 746.964 C 619.803 735.205, 617.451 711.573, 600.565 703.139 C 595.556 700.638, 587.110 699.555, 582.994 700.886" stroke="none" fill="#000000" fill-rule="evenodd"/>
</svg>