<?xml version="1.0" standalone="no"?>
<!DOCTYPE svg PUBLIC "-//W3C//DTD SVG 20010904//EN"
 "http://www.w3.org/TR/2001/REC-SVG-20010904/DTD/svg10.dtd">
<svg version="1.0" xmlns="http://www.w3.org/2000/svg"
 width="300.000000pt" height="300.000000pt" viewBox="0 0 300.000000 300.000000"
 preserveAspectRatio="xMidYMid meet">
<metadata>
Created by potrace 1.10, written by Peter Selinger 2001-2011
</metadata>
<g transform="translate(0.000000,300.000000) scale(0.100000,-0.100000)"
fill="#0c0a09" stroke="none">
<path d="M0 1500 l0 -1500 1500 0 1500 0 0 1500 0 1500 -1500 0 -1500 0 0
-1500z m1729 814 c41 -34 43 -82 4 -119 -38 -34 -77 -33 -114 5 l-30 29 -137
3 c-129 3 -137 4 -137 23 0 19 8 20 137 23 136 3 137 3 168 32 39 37 69 38
109 4z m-471 -149 l20 -25 273 -2 c259 -3 274 -4 277 -22 2 -10 -2 -22 -10
-27 -7 -5 -131 -9 -275 -9 l-262 0 -25 -25 c-26 -26 -72 -33 -105 -15 -31 16
-46 65 -31 100 16 38 35 49 82 50 27 0 41 -6 56 -25z m746 -131 c41 -40 44
-81 9 -121 -27 -31 -64 -35 -101 -13 -18 11 -32 24 -32 30 0 6 -147 11 -417
12 -418 3 -418 3 -421 24 -2 16 4 23 23 28 15 4 201 6 415 6 l389 -2 26 26
c30 30 84 35 109 10z m-912 -154 l30 -30 423 0 c435 0 441 -1 427 -37 -3 -10
-98 -13 -428 -13 -373 0 -425 -2 -431 -15 -7 -19 -55 -45 -83 -45 -31 0 -80
53 -80 85 0 35 50 85 85 85 16 0 38 -12 57 -30z m903 -126 c17 -7 45 -54 45
-78 0 -8 -12 -28 -26 -45 -33 -40 -80 -42 -114 -6 l-23 25 -406 0 c-223 0
-412 4 -419 9 -8 5 -12 17 -10 27 3 18 21 19 417 22 l414 2 23 25 c23 25 63
32 99 19z m-755 -159 l23 -25 271 0 c149 0 277 -4 284 -9 8 -5 12 -17 10 -27
-3 -18 -18 -19 -291 -22 -235 -2 -287 -5 -287 -16 0 -8 -16 -21 -36 -31 -30
-14 -41 -15 -65 -4 -36 14 -49 36 -49 83 0 69 92 102 140 51z m474 -137 c53
-47 36 -126 -30 -142 -34 -9 -81 10 -89 35 -6 17 -18 19 -140 19 -134 0 -149
4 -138 38 3 9 39 12 131 12 l127 0 28 30 c35 37 75 39 111 8z m-485 -342 c42
-22 51 -55 51 -181 0 -67 -5 -125 -12 -140 -18 -40 -57 -55 -143 -55 l-75 0 0
195 0 195 75 0 c46 0 87 -6 104 -14z m214 -85 l50 -94 40 79 c43 87 63 114 84
114 10 0 13 -38 13 -195 0 -187 -1 -195 -20 -195 -18 0 -20 8 -22 147 l-3 147
-40 -77 c-24 -47 -45 -76 -54 -75 -7 2 -32 38 -55 81 l-41 77 -3 -151 c-2
-136 -4 -150 -20 -147 -15 3 -17 22 -20 183 -1 99 0 185 3 193 11 31 41 2 88
-87z m422 12 c15 -49 30 -101 35 -118 5 -16 18 -59 30 -94 25 -81 25 -91 0
-91 -15 0 -22 11 -31 45 l-11 45 -73 0 -73 0 -11 -45 c-9 -34 -16 -45 -31 -45
-11 0 -20 4 -20 8 0 10 110 364 117 375 2 4 13 7 23 7 15 0 24 -18 45 -87z"/>
<path d="M1630 2290 c-29 -55 14 -108 70 -88 35 12 47 51 25 84 -21 32 -79 34
-95 4z"/>
<path d="M1157 2152 c-35 -38 -9 -102 41 -102 32 0 64 40 57 69 -12 49 -68 67
-98 33z"/>
<path d="M1917 2012 c-20 -22 -22 -73 -5 -90 26 -26 94 -7 98 28 9 68 -52 108
-93 62z"/>
<path d="M992 1868 c-16 -16 -16 -70 0 -86 7 -7 26 -12 43 -12 17 0 36 5 43
12 7 7 12 26 12 43 0 17 -5 36 -12 43 -7 7 -26 12 -43 12 -17 0 -36 -5 -43
-12z"/>
<path d="M1908 1713 c-17 -30 -14 -48 10 -75 32 -38 92 -9 92 45 0 58 -73 79
-102 30z"/>
<path d="M1140 1580 c-38 -38 -16 -100 36 -100 28 0 64 32 64 58 0 25 -36 62
-60 62 -11 0 -29 -9 -40 -20z"/>
<path d="M1650 1451 c-14 -4 -31 -19 -39 -33 -13 -23 -13 -29 2 -52 22 -34 80
-37 97 -6 27 50 -9 104 -60 91z"/>
<path d="M1090 935 l0 -165 49 0 c33 0 56 6 72 19 23 18 24 25 24 146 0 121
-1 128 -24 146 -16 13 -39 19 -72 19 l-49 0 0 -165z"/>
<path d="M1791 977 c-13 -45 -26 -90 -29 -99 -4 -16 3 -18 52 -18 38 0 56 4
56 13 0 13 -48 178 -53 183 -1 2 -13 -34 -26 -79z"/>
</g>
</svg>
